<mxfile host="app.diagrams.net" modified="2023-12-11T19:58:22.367Z" agent="Mozilla/5.0 (X11; Linux x86_64; rv:120.0) Gecko/20100101 Firefox/120.0" version="22.1.7" etag="4EmR7Ol1JLE2DW0PLSLk" type="github">
  <diagram name="Page-1" id="-ICdKRd8Rjgq8OdrDtD7">
    <mxGraphModel>
      <root>
        <mxCell id="0" />
        <mxCell id="1" parent="0" />
      </root>
    </mxGraphModel>
  </diagram>
</mxfile>
